<svg width="11" height="12" viewBox="0 0 11 12" fill="none" xmlns="http://www.w3.org/2000/svg">
<g clip-path="url(#clip0_518_703)">
<path d="M5.17509 0.82251C2.50464 0.82251 0.332044 2.97466 0.332044 5.62006C0.332044 6.54492 0.597928 7.44064 1.10177 8.215C1.00636 9.37655 0.750645 10.2389 0.379345 10.6474C0.330268 10.7014 0.317999 10.784 0.348995 10.8522C0.3766 10.9132 0.432941 10.9507 0.493479 10.9507C0.500905 10.9507 0.508493 10.9501 0.51608 10.9489C0.581461 10.9388 2.10024 10.698 3.19865 10.0004C3.82259 10.2774 4.48706 10.4176 5.17509 10.4176C7.84555 10.4176 10.0181 8.26547 10.0181 5.62006C10.0181 2.97466 7.84555 0.82251 5.17509 0.82251Z" fill="#262626"/>
</g>
<defs>
<clipPath id="clip0_518_703">
<rect width="9.6861" height="10.6612" fill="white" transform="translate(0.332031 0.55603)"/>
</clipPath>
</defs>
</svg>
